#!OML:ASF H:\Not Pregnant\Project 1\Capture day 1\Session 1\non-pregnant.ASF
:FULLY-SPECIFIED
:DEGREES
503
root -5.78777 16.2409 34.7346 168.616 -80.642 -158.435
lowerback -14.3551 2.57565 2.20447
upperback -5.79411 2.80894 -0.39549
thorax 2.05495 1.23624 -1.21374
lowerneck 14.5335 -7.98623 -30.9556
upperneck -10.149 -15.7999 42.2619
head 1.5811 -10.2058 21.7929
rclavicle -1.95803e-014 -8.34896e-015
rhumerus -40.2971 15.8319 -97.0625
rradius 28.9058
rwrist 16.4197
rhand -10.1976 2.71722
rfingers 7.12502
rthumb 15.7933 -26.6585
lclavicle -1.95803e-014 -8.34896e-015
lhumerus -46.8475 -16.1116 93.1615
lradius 36.2733
lwrist 42.4038
lhand -14.3031 -13.0979
lfingers 7.12502
lthumb 11.8369 16.5475
rfemur -7.69643 -6.05572 21.9618
rtibia 9.65143
rfoot -14.9964 12.7319
rtoes -13.7458
lfemur -11.2724 3.54528 -15.3199
ltibia 13.9869
lfoot -14.816 -6.57802
ltoes -21.0375
504
root -5.78623 16.2413 34.7337 168.73 -80.6854 -158.536
lowerback -14.3018 2.53585 2.1889
upperback -5.79689 2.75956 -0.366471
thorax 2.01958 1.21207 -1.18468
lowerneck 14.481 -7.97295 -30.9501
upperneck -10.2469 -15.7319 42.2486
head 1.53509 -10.1652 21.7947
rclavicle -1.05853e-014 -9.14409e-015
rhumerus -39.9356 14.8103 -96.482
rradius 28.3457
rwrist 17.1438
rhand -10.0424 2.63281
rfingers 7.12502
rthumb 15.9428 -26.731
lclavicle -1.05853e-014 -9.14409e-015
lhumerus -46.7003 -15.6025 92.9231
lradius 35.7692
lwrist 42.2096
lhand -14.5755 -12.9662
lfingers 7.12502
lthumb 11.5741 16.6942
rfemur -7.75246 -6.09564 21.9317
rtibia 9.72072
rfoot -15.0177 12.7445
rtoes -13.7058
lfemur -11.285 3.54918 -15.3488
ltibia 13.9532
lfoot -14.7889 -6.64034
ltoes -20.9977
505
root -5.78521 16.2419 34.733 168.847 -80.7317 -158.627
lowerback -14.2685 2.4977 2.17208
upperback -5.8071 2.71121 -0.337526
thorax 1.98718 1.18803 -1.15423
lowerneck 14.4334 -7.95792 -30.9661
upperneck -10.3135 -15.677 42.2413
head 1.50488 -10.1316 21.8029
rclavicle 2.45996e-014 7.15625e-015
rhumerus -39.5507 13.6351 -95.8286
rradius 27.7194
rwrist 18.0844
rhand -9.8583 2.60022
rfingers 7.12502
rthumb 16.1201 -26.7494
lclavicle 2.45996e-014 7.15625e-015
lhumerus -46.5253 -15.0371 92.6679
lradius 35.1793
lwrist 41.8262
lhand -14.9064 -12.9044
lfingers 7.12502
lthumb 11.2551 16.7737
rfemur -7.81518 -6.13821 21.9051
rtibia 9.78019
rfoot -15.0404 12.7524
rtoes -13.6881
lfemur -11.3124 3.52815 -15.3782
ltibia 13.9246
lfoot -14.7631 -6.6709
ltoes -20.9801
506
root -5.78452 16.2427 34.7321 168.952 -80.7784 -158.696
lowerback -14.2485 2.46415 2.1527
upperback -5.82488 2.66824 -0.308075
thorax 1.95399 1.16634 -1.12061
lowerneck 14.3942 -7.94301 -30.9994
upperneck -10.3543 -15.6365 42.2396
head 1.48843 -10.1061 21.8161
rclavicle 1.56046e-014 -1.23246e-014
rhumerus -39.1668 12.3427 -95.1274
rradius 27.0562
rwrist 19.151
rhand -9.6659 2.61632
rfingers 7.12502
rthumb 16.3054 -26.7182
lclavicle 1.56046e-014 -1.23246e-014
lhumerus -46.3346 -14.4373 92.4101
lradius 34.5304
lwrist 41.251
lhand -15.313 -12.8647
lfingers 7.12502
lthumb 10.8629 16.8343
rfemur -7.87568 -6.18117 21.8858
rtibia 9.81708
rfoot -15.0545 12.7579
rtoes -13.6763
lfemur -11.3552 3.48512 -15.4043
ltibia 13.9072
lfoot -14.7391 -6.67461
ltoes -20.9659
507
root -5.78402 16.2437 34.7309 168.965 -80.8172 -158.661
lowerback -14.2403 2.43627 2.14104
upperback -5.84951 2.63059 -0.272246
thorax 1.92024 1.14691 -1.08353
lowerneck 14.36 -7.93052 -31.0272
upperneck -10.3736 -15.6048 42.2305
head 1.4783 -10.0846 21.8212
rclavicle 6.66923e-014 2.78299e-014
rhumerus -38.7981 10.9975 -94.4065
rradius 26.3786
rwrist 20.2517
rhand -9.4744 2.63974
rfingers 7.12502
rthumb 16.4897 -26.6795
lclavicle 6.66923e-014 2.78299e-014
lhumerus -46.141 -13.8153 92.1619
lradius 33.841
lwrist 40.4581
lhand -15.8272 -12.8324
lfingers 7.12502
lthumb 10.3669 16.8921
rfemur -7.92956 -6.21811 21.8928
rtibia 9.82166
rfoot -15.0606 12.7569
rtoes -13.704
lfemur -11.4149 3.42147 -15.4093
ltibia 13.9043
lfoot -14.7192 -6.64225
ltoes -20.9711
508
root -5.78345 16.2449 34.7298 168.911 -80.8505 -158.55
lowerback -14.2378 2.41846 2.14133
upperback -5.87921 2.60421 -0.23809
thorax 1.88525 1.1327 -1.05302
lowerneck 14.332 -7.92481 -31.0375
upperneck -10.3801 -15.5842 42.2145
head 1.47201 -10.0689 21.8151
rclavicle 8.19987e-015 -5.1684e-015
rhumerus -38.467 9.66893 -93.7207
rradius 25.7237
rwrist 21.2708
rhand -9.32664 2.59515
rfingers 7.12502
rthumb 16.632 -26.7122
lclavicle 8.19987e-015 -5.1684e-015
lhumerus -45.9535 -13.2033 91.9399
lradius 33.1346
lwrist 39.4712
lhand -16.4901 -12.7824
lfingers 7.12502
lthumb 9.72737 16.9729
rfemur -7.97296 -6.25119 21.9178
rtibia 9.78849
rfoot -15.05 12.7539
rtoes -13.7464
lfemur -11.4906 3.3396 -15.3996
ltibia 13.9164
lfoot -14.7027 -6.58091
ltoes -20.9972
509
root -5.78263 16.2464 34.7287 168.794 -80.8778 -158.371
lowerback -14.2353 2.41142 2.15672
upperback -5.91219 2.59007 -0.209624
thorax 1.84813 1.12421 -1.03502
lowerneck 14.3104 -7.92773 -31.0259
upperneck -10.3798 -15.5758 42.1942
head 1.46839 -10.0601 21.7981
rclavicle 3.67752e-015 -5.56597e-015
rhumerus -38.1659 8.33708 -93.0615
rradius 25.0876
rwrist 22.2494
rhand -9.21897 2.51355
rfingers 7.12502
rthumb 16.7356 -26.7851
lclavicle 3.67752e-015 -5.56597e-015
lhumerus -45.7839 -12.6311 91.7605
lradius 32.4257
lwrist 38.2182
lhand -17.3499 -12.6624
lfingers 7.12502
lthumb 8.89774 17.13
rfemur -8.00569 -6.27956 21.9596
rtibia 9.72403
rfoot -15.0241 12.7498
rtoes -13.7903
lfemur -11.5752 3.24125 -15.3755
ltibia 13.9364
lfoot -14.6854 -6.49611
ltoes -21.0228
510
root -5.78136 16.2483 34.728 168.627 -80.9 -158.137
lowerback -14.2273 2.4138 2.1903
upperback -5.94709 2.58639 -0.187967
thorax 1.80752 1.12057 -1.03289
lowerneck 14.2899 -7.93796 -30.9987
upperneck -10.3718 -15.5776 42.1714
head 1.46884 -10.0567 21.7728
rclavicle -6.11263e-015 -3.97569e-016
rhumerus -37.9006 7.04159 -92.4495
rradius 24.4863
rwrist 23.1636
rhand -9.15017 2.38368
rfingers 7.12502
rthumb 16.8019 -26.9094
lclavicle -6.11263e-015 -3.97569e-016
lhumerus -45.6412 -12.1104 91.6327
lradius 31.7587
lwrist 36.919
lhand -18.386 -12.4626
lfingers 7.12502
lthumb 7.89782 17.3699
rfemur -8.03241 -6.30426 22.0121
rtibia 9.64016
rfoot -14.9852 12.7457
rtoes -13.8181
lfemur -11.6622 3.13808 -15.3415
ltibia 13.9547
lfoot -14.6656 -6.40009
ltoes -21.0628
511
root -5.77962 16.2503 34.7277 168.53 -80.928 -157.98
lowerback -14.2075 2.41162 2.21153
upperback -5.98065 2.57893 -0.166518
thorax 1.7614 1.11529 -1.025
lowerneck 14.2599 -7.9504 -30.9743
upperneck -10.3516 -15.5825 42.1416
head 1.4748 -10.0531 21.7414
rclavicle 1.37658e-014 1.19271e-015
rhumerus -37.6665 5.78855 -91.8643
rradius 23.9202
rwrist 24.0717
rhand -9.09985 2.22298
rfingers 7.12502
rthumb 16.8503 -27.0659
lclavicle 1.37658e-014 1.19271e-015
lhumerus -45.5277 -11.6166 91.5631
lradius 31.1396
lwrist 35.5583
lhand -19.5818 -12.1587
lfingers 7.12502
lthumb 6.74349 17.714
rfemur -8.05314 -6.33298 22.0478
rtibia 9.55178
rfoot -14.9406 12.7424
rtoes -13.8243
lfemur -11.7408 3.03201 -15.3233
ltibia 13.9624
lfoot -14.6389 -6.30685
ltoes -21.0841
